<?xml version="1.0" encoding="UTF-8" standalone="no"?>
<!-- Created with Inkscape (http://www.inkscape.org/) -->

<svg
   width="210mm"
   height="297mm"
   viewBox="0 0 210 297"
   version="1.1"
   id="svg5"
   inkscape:version="1.2.1 (9c6d41e410, 2022-07-14)"
   sodipodi:docname="chaman.svg"
   xmlns:inkscape="http://www.inkscape.org/namespaces/inkscape"
   xmlns:sodipodi="http://sodipodi.sourceforge.net/DTD/sodipodi-0.dtd"
   xmlns:xlink="http://www.w3.org/1999/xlink"
   xmlns="http://www.w3.org/2000/svg"
   xmlns:svg="http://www.w3.org/2000/svg">
  <sodipodi:namedview
     id="namedview7"
     pagecolor="#ffffff"
     bordercolor="#000000"
     borderopacity="0.25"
     inkscape:showpageshadow="2"
     inkscape:pageopacity="0.0"
     inkscape:pagecheckerboard="0"
     inkscape:deskcolor="#d1d1d1"
     inkscape:document-units="mm"
     showgrid="false"
     inkscape:zoom="0.35590942"
     inkscape:cx="16.858222"
     inkscape:cy="505.74666"
     inkscape:window-width="1366"
     inkscape:window-height="745"
     inkscape:window-x="-8"
     inkscape:window-y="-8"
     inkscape:window-maximized="1"
     inkscape:current-layer="layer1" />
  <defs
     id="defs2">
    <linearGradient
       inkscape:collect="always"
       id="linearGradient560">
      <stop
         style="stop-color:#000000;stop-opacity:1;"
         offset="0"
         id="stop556" />
      <stop
         style="stop-color:#000000;stop-opacity:0;"
         offset="1"
         id="stop558" />
    </linearGradient>
    <linearGradient
       inkscape:collect="always"
       id="linearGradient528">
      <stop
         style="stop-color:#000000;stop-opacity:1;"
         offset="0"
         id="stop524" />
      <stop
         style="stop-color:#000000;stop-opacity:0;"
         offset="1"
         id="stop526" />
    </linearGradient>
    <linearGradient
       inkscape:collect="always"
       id="linearGradient520">
      <stop
         style="stop-color:#000000;stop-opacity:1;"
         offset="0"
         id="stop516" />
      <stop
         style="stop-color:#000000;stop-opacity:0;"
         offset="1"
         id="stop518" />
    </linearGradient>
    <linearGradient
       inkscape:collect="always"
       id="linearGradient512">
      <stop
         style="stop-color:#000000;stop-opacity:1;"
         offset="0"
         id="stop508" />
      <stop
         style="stop-color:#000000;stop-opacity:0;"
         offset="1"
         id="stop510" />
    </linearGradient>
    <linearGradient
       inkscape:collect="always"
       id="linearGradient504">
      <stop
         style="stop-color:#000000;stop-opacity:1;"
         offset="0"
         id="stop500" />
      <stop
         style="stop-color:#000000;stop-opacity:0;"
         offset="1"
         id="stop502" />
    </linearGradient>
    <linearGradient
       inkscape:collect="always"
       id="linearGradient432">
      <stop
         style="stop-color:#000000;stop-opacity:1;"
         offset="0"
         id="stop428" />
      <stop
         style="stop-color:#000000;stop-opacity:0;"
         offset="1"
         id="stop430" />
    </linearGradient>
    <rect
       x="176.82168"
       y="359.60365"
       width="309.93464"
       height="196.68929"
       id="rect172" />
    <linearGradient
       inkscape:collect="always"
       xlink:href="#linearGradient432"
       id="linearGradient434"
       x1="131.95363"
       y1="131.21024"
       x2="131.95363"
       y2="163.54817"
       gradientUnits="userSpaceOnUse"
       gradientTransform="matrix(1.8010467,0,0,2.396771,-165.76484,-171.09512)" />
    <linearGradient
       inkscape:collect="always"
       xlink:href="#linearGradient504"
       id="linearGradient506"
       x1="144.21974"
       y1="129.72343"
       x2="141.98955"
       y2="161.68967"
       gradientUnits="userSpaceOnUse"
       gradientTransform="matrix(1.8010467,0,0,2.396771,-165.76484,-171.09512)" />
    <linearGradient
       inkscape:collect="always"
       xlink:href="#linearGradient512"
       id="linearGradient514"
       x1="163.54817"
       y1="128.98003"
       x2="158.71606"
       y2="161.31796"
       gradientUnits="userSpaceOnUse"
       gradientTransform="matrix(1.8010467,0,0,2.396771,-165.76484,-171.09512)" />
    <linearGradient
       inkscape:collect="always"
       xlink:href="#linearGradient520"
       id="linearGradient522"
       x1="178.78789"
       y1="128.60834"
       x2="170.23877"
       y2="169.86708"
       gradientUnits="userSpaceOnUse"
       gradientTransform="matrix(1.8010467,0,0,2.396771,-165.76484,-171.09512)" />
    <linearGradient
       inkscape:collect="always"
       xlink:href="#linearGradient528"
       id="linearGradient530"
       x1="198.1163"
       y1="125.26303"
       x2="182.87659"
       y2="195.88609"
       gradientUnits="userSpaceOnUse"
       gradientTransform="matrix(1.8010467,0,0,2.396771,-165.76484,-171.09512)" />
    <linearGradient
       inkscape:collect="always"
       xlink:href="#linearGradient528"
       id="linearGradient532"
       x1="187.70869"
       y1="128.23663"
       x2="181.76149"
       y2="167.63687"
       gradientUnits="userSpaceOnUse"
       gradientTransform="matrix(1.8010467,0,0,2.396771,-165.76484,-171.09512)" />
    <linearGradient
       inkscape:collect="always"
       xlink:href="#linearGradient560"
       id="linearGradient562"
       x1="102.5893"
       y1="144.96315"
       x2="137.90083"
       y2="115.22712"
       gradientUnits="userSpaceOnUse"
       gradientTransform="matrix(1.8010467,0,0,2.396771,-165.76484,-171.09512)" />
  </defs>
  <g
     inkscape:label="Layer 1"
     inkscape:groupmode="layer"
     id="layer1">
    <text
       xml:space="preserve"
       style="font-size:3.175px;fill:#000000;stroke-width:0.264583"
       x="39.424778"
       y="90.414162"
       id="text168"><tspan
         sodipodi:role="line"
         id="tspan166"
         style="stroke-width:0.264583"
         x="39.424778"
         y="90.414162" /></text>
    <path
       style="fill:url(#linearGradient434);fill-opacity:1;stroke-width:0.549715"
       id="path283"
       d="m 60.065433,134.61175 c -3.30167,3.8421 -4.841657,8.92853 -6.538191,14.23459 -1.093061,3.41866 -2.082016,6.89496 -3.084232,10.36259 -0.500384,1.73128 -5.108841,18.24666 -5.682786,20.30173 -2.885229,11.16114 -6.573855,21.95336 -8.945299,33.34107 -0.938813,2.68863 -3.546219,9.74848 6.617584,1.55172 1.611294,-1.29946 0.68806,-4.93035 1.058193,-7.38874 1.305488,-8.67102 2.809674,-17.27722 4.325224,-25.88616 1.528734,-7.68204 3.025914,-15.64849 7.098003,-21.7467 2.324934,-3.48169 3.684181,-4.46693 6.502924,-7.16488 3.166953,-2.69579 6.708116,-4.35191 10.136059,-6.31491 0.93919,-0.53784 1.91515,-0.99251 2.789213,-1.69845 2.0136,-1.62631 3.82915,-4.03178 5.553443,-6.12215 4.108476,-5.21892 7.303169,-10.41301 9.004662,-17.68306 0.0548,-0.64699 0.15597,-1.28999 0.16407,-1.94095 0.0558,-4.45917 -4.123923,-5.21569 -7.405339,-5.10196 -0.892913,0.0309 -0.70891,2.18283 -1.028803,3.29263 -0.393,1.36348 -0.73949,2.74989 -1.10924,4.12482 -2.112653,8.36032 -3.999383,16.84336 -5.494836,25.4394 -0.8233,5.31017 -1.57405,10.60739 -3.11347,15.64749 0,0 6.092893,4.52589 6.092893,4.52589 v 0 c 1.499633,-5.12163 2.298963,-10.47252 3.046143,-15.86468 1.371413,-8.59966 3.143563,-17.10949 5.373659,-25.38497 0.38903,-1.3355 0.73607,-2.69404 1.16706,-4.00656 0.3318,-1.01038 1.60917,-2.06542 1.11864,-2.95407 -1.36376,-2.47061 -3.834943,-3.40615 -5.661016,-5.27493 -0.14246,-0.14573 0.4233,-0.15052 0.53871,0.0328 0.40465,0.64308 0.22263,2.45458 0.20771,3.0319 -0.15471,0.75989 -0.26751,1.53707 -0.46389,2.27966 -1.577443,5.96472 -4.792716,10.79721 -8.139516,15.134 -2.050323,2.45226 -3.111343,3.9733 -5.505196,5.83916 -0.8716,0.67936 -1.82722,1.14717 -2.7495,1.69531 -3.425766,2.03606 -6.932296,3.86911 -10.103566,6.58831 -2.806175,2.72784 -4.30829,3.88105 -6.636202,7.37329 -4.161545,6.24299 -5.506248,14.38151 -6.959842,22.25922 -1.445472,8.61265 -2.819454,17.25819 -4.412539,25.82532 -0.44259,2.38017 -2.050389,4.80965 -1.414476,7.11094 5.466445,19.78246 5.487175,10.67622 5.535479,7.17485 1.620552,-11.66159 5.504664,-22.52464 8.161015,-33.78754 1.277272,-4.70252 4.261148,-15.8012 5.615965,-20.31575 1.02647,-3.42041 2.061517,-6.84147 3.25091,-10.16708 1.81302,-5.06929 3.68085,-9.92343 7.070926,-13.36406 0,0 -5.980546,-4.99904 -5.980546,-4.99904 z" />
    <path
       style="fill:url(#linearGradient506);fill-opacity:1;stroke-width:0.549715"
       id="path285"
       d="m 86.615497,146.76338 c -1.10545,8.26539 -3.178296,16.23496 -4.890416,24.30309 -0.36412,1.79657 -0.790743,4.05239 -1.252923,5.86514 -0.0724,0.28404 -0.46905,0.67965 -0.27153,0.82415 2.010573,1.47102 4.051616,3.21683 6.327269,3.6065 0.62169,0.10641 0.16245,-1.65421 0.24307,-2.48143 0.12625,-1.29677 0.25159,-2.59373 0.37738,-3.89058 0.4564,-4.21599 1.02337,-8.40332 1.67875,-12.57169 0.199313,-1.2676 0.886483,-5.69087 1.207683,-6.98388 0.30407,-1.22412 0.73304,-2.38689 1.099557,-3.58036 2.612503,-6.73565 5.762216,-11.65632 10.681123,-15.46162 1.31903,-0.29641 1.66094,-0.61334 2.94475,-0.007 0.41663,0.19653 1.54585,1.14211 1.15541,0.86626 -1.69212,-1.19558 -3.2914,-2.64785 -5.06075,-3.62559 -0.36741,-0.20301 0.57218,0.7639 0.74497,1.24073 0.19448,0.53671 0.22146,1.15467 0.33217,1.73198 -0.029,0.83288 -0.0126,1.6707 -0.087,2.49861 -0.23884,2.66826 -0.68161,5.29715 -1.02206,7.9458 -0.57182,4.44841 -1.156867,8.89317 -1.753534,13.3358 -0.37348,2.89099 -0.78288,5.77601 -1.08779,8.68207 -0.15255,1.45359 -0.28691,2.23103 -0.10843,3.65752 0.0515,0.41162 0.18699,0.79664 0.28048,1.19498 4.460304,7.46541 7.666314,7.15978 10.846704,1.82737 0.67414,-1.19807 1.10464,-2.53547 1.46752,-3.93543 0,0 -6.20502,-4.5327 -6.20502,-4.5327 v 0 c -0.28616,1.32105 -0.66893,2.54784 -1.30135,3.65774 -0.63775,1.02222 -1.31368,2.17945 -2.30111,2.64364 -0.25573,0.12031 -1.018167,-0.0439 -0.802847,0.17568 3.160997,3.22172 7.584117,5.79633 4.729477,4.10339 -0.13598,-0.32476 -0.32309,-0.62004 -0.4078,-0.97429 -0.31767,-1.32872 -0.15507,-2.09981 -0.0402,-3.50209 0.24064,-2.93494 0.56924,-5.85583 0.9091,-8.77275 0.54627,-4.45337 1.09231,-8.91194 1.71737,-13.34719 0.37269,-2.64445 0.88924,-5.25178 1.23256,-7.90326 0.11437,-0.8834 0.15291,-1.78128 0.22931,-2.67192 -0.0603,-0.69194 -0.0236,-1.41153 -0.1811,-2.07582 -0.82102,-3.46208 -6.96745,-6.65981 -7.6275,-7.16334 -1.423414,-1.08596 -2.972024,-0.78078 -4.432087,-0.0614 -1.502863,1.27213 -2.055033,1.63903 -3.448623,3.27825 -3.03862,3.57414 -5.433423,8.03118 -7.331213,12.77252 -0.39694,1.22544 -0.867913,2.41299 -1.190823,3.67638 -0.37055,1.44981 -0.948833,5.61137 -1.163413,7.05856 -0.62075,4.18647 -1.21018,8.3799 -1.71746,12.59391 -0.16462,1.25957 -0.308633,2.52425 -0.493893,3.77875 -0.12175,0.82381 -0.87133,1.85848 -0.42656,2.45393 7.095829,9.49936 5.701939,8.12843 6.354949,4.35136 0.34562,-1.99915 0.77244,-3.97253 1.09906,-5.97779 1.613483,-8.07956 3.59431,-16.01304 5.165493,-24.10538 0,0 -6.218753,-4.49809 -6.218753,-4.49809 z" />
    <path
       style="fill:#000000;stroke-width:0.549715"
       id="path287"
       d="m 94.45532,158.15864 c -2.466533,1.6793 -5.08225,2.86723 -7.713733,3.98509 -1.68468,0.64418 -0.8602,0.35179 -2.472143,0.88369 0,0 5.796316,5.30884 5.796316,5.30884 v 0 c 1.607567,-0.58577 0.78507,-0.27004 2.46644,-0.95209 2.685093,-1.15673 5.333786,-2.46055 7.88846,-4.06519 0,0 -5.96534,-5.16034 -5.96534,-5.16034 z" />
    <path
       style="fill:url(#linearGradient514);fill-opacity:1;stroke-width:0.549715"
       id="path289"
       d="m 119.53675,134.79242 c -2.21547,9.04393 -3.99713,18.25053 -5.7643,27.46391 -0.6409,2.8417 -0.95288,5.80404 -1.6422,8.62813 -0.1014,0.41563 -0.21628,0.82955 -0.3742,1.2127 -0.0528,0.12822 -0.34267,0.22242 -0.24608,0.29223 2.01672,1.45952 4.12822,2.67408 6.19233,4.01112 -0.46936,-5.5415 0.78595,-11.11474 1.90738,-16.39525 0.79566,-2.60273 1.48988,-9.57961 3.28975,-11.30275 0.2488,-0.23823 0.58601,-0.23919 0.879,-0.35882 2.03358,-0.012 3.7621,1.42381 5.607,2.34417 0.28205,0.0462 0.57974,0.27045 0.84614,0.13877 1.93362,-0.9555 3.23784,-4.7209 4.0541,-6.86368 0.89179,-2.34102 2.32627,-6.84559 3.09472,-9.20308 1.22986,-3.88691 2.43132,-7.78969 3.65265,-11.68126 0.25565,-0.81466 0.46618,-1.659 0.78113,-2.43603 0.13634,-0.3366 0.80507,-0.67289 0.55991,-0.87252 -1.90866,-1.55423 -4.08278,-2.439 -6.12417,-3.6585 -0.0521,3.51163 -0.69605,6.93949 -1.14302,10.38089 -0.21567,1.66046 -0.37141,3.33437 -0.59888,4.99205 -0.65409,4.76648 -1.32231,8.39214 -2.14467,13.19491 -2.02308,10.01913 -3.8696,20.09813 -5.90169,30.11383 0,0 5.72583,4.12704 5.72583,4.12704 v 0 c 1.85099,-10.09083 3.64871,-20.20094 5.83367,-30.17673 0.89034,-4.63023 1.67931,-8.45919 2.38926,-13.09069 0.78611,-5.12832 1.39827,-10.30882 2.25128,-15.42159 -2.12769,-1.74722 -4.09884,-3.889 -6.38307,-5.24171 -0.30762,-0.18216 -0.37702,0.74801 -0.5133,1.15773 -0.27054,0.8134 -0.46743,1.66672 -0.70304,2.49914 -1.11683,3.94559 -2.28348,7.86467 -3.48975,11.7635 -0.94185,2.81752 -2.0484,6.29607 -3.17133,9.02075 -0.68076,1.65178 -2.03587,5.40565 -3.82593,5.70582 -0.26284,0.0441 -0.5118,-0.18239 -0.7677,-0.27364 -1.9093,-1.02227 -3.78158,-2.32225 -5.90689,-1.72124 -0.34814,0.25557 -0.74688,0.41572 -1.04441,0.76671 -2.0567,2.42613 -2.2349,8.54988 -3.23702,11.75441 -1.15879,5.45464 -2.3151,10.99382 -2.3964,16.69809 2.14072,1.63361 4.19788,3.4786 6.42215,4.90082 0.16282,0.10402 0.21966,-0.38782 0.28882,-0.60977 0.13616,-0.43674 0.23079,-0.89519 0.32259,-1.35194 0.58226,-2.89688 0.88391,-5.87665 1.44854,-8.77942 1.62829,-9.25302 3.19079,-18.59485 6.13447,-27.30354 0,0 -6.30267,-4.42458 -6.30267,-4.42458 z" />
    <path
       style="fill:url(#linearGradient522);fill-opacity:1;stroke-width:0.549715"
       id="path291"
       d="m 142.9675,141.02858 c -0.92644,10.51502 -1.98448,21.05631 -3.59357,31.43044 -0.20862,1.07656 -0.3822,2.16625 -0.62586,3.22972 -0.14139,0.61712 -0.26508,1.26118 -0.52739,1.80376 -0.056,0.11577 -0.27991,-0.38355 -0.18404,-0.33214 2.03165,1.08974 3.86097,3.08402 6.03226,3.46904 0.59742,0.10593 -0.0575,-1.60421 -0.036,-2.40579 0.0297,-1.1046 0.12607,-2.20421 0.1892,-3.30634 0.55438,-5.39139 1.51572,-10.68979 3.06288,-15.73492 0.99545,-3.24616 1.57757,-4.56952 2.77101,-7.61773 1.80309,-4.3808 4.22526,-8.15003 6.72996,-11.82308 0.53615,-0.54575 1.15987,-1.82955 1.91021,-1.97271 0.22347,-0.0427 0.85909,0.33658 0.66201,0.19006 -6.0459,-4.49294 -6.26158,-5.78861 -4.43274,-1.65722 1.72077,7.52531 2.07722,15.50399 2.10786,23.33204 -0.0326,2.45988 -0.0794,4.92263 -0.26341,7.37223 -0.0279,0.37025 -0.0591,0.74043 -0.10464,1.10754 -0.0162,0.12895 -0.16786,0.31976 -0.0798,0.37759 2.07321,1.36113 4.22823,2.48936 6.34235,3.73403 0.0728,-2.43536 0.4067,-4.83604 0.16084,-7.26641 -1.3469,-5.90292 -6.71203,-7.06712 -10.68529,-7.36586 -1.66951,-0.0925 -3.33392,-0.13901 -4.99913,0.0463 0,0 5.72584,5.45625 5.72584,5.45625 v 0 c 1.64381,-0.11792 3.28882,-0.0853 4.93233,0.0527 0.74298,0.088 1.63322,0.15459 2.36652,0.3865 0.32753,0.10354 1.23928,0.66923 0.95922,0.42061 -10.19868,-9.05361 -5.80168,-5.8125 -4.67813,-3.12831 0.4227,2.33472 0.0348,4.71325 -0.13202,7.07009 2.10695,1.69353 4.15438,3.52577 6.32088,5.0806 0.11311,0.0812 0.0398,-0.33801 0.0499,-0.5084 0.0232,-0.39156 0.0367,-0.78406 0.0499,-1.17643 0.0845,-2.50846 0.13004,-5.0197 0.14264,-7.53054 -0.12157,-7.91608 -0.54354,-15.89636 -1.88503,-23.62698 -0.21951,-0.77886 -0.16047,-1.83384 -0.65853,-2.33659 -5.19136,-5.24061 -6.4661,-7.73584 -9.83725,-2.90342 -2.46403,3.8053 -4.82556,7.72479 -6.59633,12.19501 -2.83494,7.49091 -5.23689,15.20427 -6.02266,23.6039 -0.0998,1.10489 -0.2226,2.20652 -0.29905,3.31469 -0.0555,0.80517 -0.51559,1.83652 -0.0967,2.42225 6.74939,9.4386 6.33742,7.47327 7.56991,0.24782 1.39259,-10.39022 2.19539,-20.91878 3.95442,-31.22578 0,0 -6.30268,-4.4246 -6.30268,-4.4246 z" />
    <path
       style="fill:url(#linearGradient532);fill-opacity:1;stroke-width:0.549715"
       id="path293"
       d="m 169.74743,131.34623 c -0.68125,6.62191 -1.64448,13.19978 -3.0089,19.63228 -1.08664,4.63013 -1.95803,9.36117 -3.14936,13.94667 -0.60966,2.03299 -0.91604,4.21544 -1.57652,6.21852 -0.55614,1.43792 -1.16862,2.82433 -1.6919,4.28751 0,0 6.14879,4.63634 6.14879,4.63634 v 0 c 0.52294,-1.47407 1.166,-2.84003 1.72476,-4.28569 0.69434,-2.02252 0.9978,-4.2456 1.56992,-6.33409 1.10409,-4.66271 1.90185,-9.45306 2.96074,-14.13508 1.31923,-6.45841 2.2908,-13.01615 3.32125,-19.56338 0,0 -6.29878,-4.40308 -6.29878,-4.40308 z" />
    <path
       style="fill:url(#linearGradient530);fill-opacity:1;stroke-width:0.549715"
       id="path295"
       d="m 173.89787,127.2059 c 1.23134,9.63416 1.52804,19.43187 1.81041,29.18131 0.0349,3.92272 0.20806,7.83929 0.37114,11.75511 0.0807,1.9386 0.13256,3.84741 0.39838,5.7569 2.20967,1.18467 4.30135,2.87921 6.629,3.554 0.39222,0.11361 0.24089,-1.01923 0.37014,-1.52494 0.13489,-0.52821 1.1589,-4.32004 1.17775,-4.40376 0.39159,-1.73867 0.71423,-3.50353 1.07134,-5.25528 0.5446,-2.41726 1.0892,-4.83453 1.6338,-7.25179 3.77024,-14.56932 9.10089,-28.27023 13.88358,-42.26646 0.3717,-1.15109 0.74339,-2.30222 1.11509,-3.45331 0,0 -5.94778,-4.42461 -5.94778,-4.42461 v 0 c -0.33508,1.17027 -0.67019,2.34054 -1.00529,3.51084 -4.4093,14.25724 -9.47831,28.14046 -13.67288,42.51982 -1.26934,4.9211 -2.45677,9.88332 -3.90631,14.71526 -0.1774,0.59136 -0.35149,1.18453 -0.51982,1.78056 -0.12607,0.44619 -0.63193,1.03088 -0.36309,1.34584 1.78235,2.08806 3.96955,3.46959 5.95432,5.20439 -0.56566,-1.84112 -0.58524,-3.75209 -0.69816,-5.72337 -0.22603,-3.9451 -0.43236,-7.89311 -0.53981,-11.84767 -0.36014,-9.66445 -0.70371,-19.33937 -1.41018,-28.97166 0,0 -6.35163,-4.20118 -6.35163,-4.20118 z" />
    <path
       style="fill:url(#linearGradient562);fill-opacity:1;stroke-width:0.549715"
       id="path546"
       d="m 63.877516,122.16429 c -2.565433,-1.73696 -5.027993,-3.3067 -7.793763,-4.41085 -3.001622,-0.957 -6.052426,-1.12416 -9.116804,-0.89045 -2.134053,0.25399 -4.281609,0.18863 -6.394908,0.70427 -0.455701,0.11121 -2.876583,0.85299 -3.348332,0.99624 -3.285853,1.00514 -6.256313,2.94628 -9.099325,5.29842 -3.085289,3.12779 -5.771705,6.85122 -8.244817,10.80774 -2.307669,3.68556 -4.449049,7.49775 -6.281547,11.631 -1.762902,4.69655 -1.908663,9.81114 -1.721177,14.94142 0.209024,3.7237 0.934078,7.32286 2.097428,10.70815 2.287839,5.47586 6.502433,7.51388 10.511519,10.58422 0.328998,0.17089 0.662701,0.32658 0.986979,0.51281 0.604558,0.34715 1.200902,0.7192 1.797937,1.08873 0.274749,0.17017 1.075927,0.74149 0.813316,0.54031 -6.170924,-4.72771 -6.867407,-5.39863 -4.54542,-3.29631 4.032032,4.04175 6.543309,6.04962 10.956498,6.56375 0.267996,-0.0252 0.53601,-0.0503 0.804024,-0.0755 0,0 -5.754699,-5.52895 -5.754699,-5.52895 v 0 c -0.244979,-0.005 -0.489975,-0.01 -0.734954,-0.0144 -0.87879,-0.14213 -1.75336,-0.28042 -2.594328,-0.67354 -0.252165,-0.11792 -0.964965,-0.60614 -0.736664,-0.42121 1.531075,1.24033 7.704955,6.02685 4.648944,3.59645 -3.499714,-3.26291 -7.239545,-5.95736 -11.151195,-8.19482 10.151957,7.9323 5.31667,4.56132 3.517852,2.47625 -0.818522,-0.94879 -1.549554,-2.03668 -2.109284,-3.27711 -1.213149,-3.28681 -2.032234,-6.77186 -2.298843,-10.43477 -0.217729,-4.95755 -0.188624,-9.90986 1.540819,-14.45656 1.796982,-4.09828 3.929624,-7.87385 6.230701,-11.49623 2.418289,-3.8832 4.994908,-7.64016 8.107849,-10.56542 2.804158,-2.2742 5.778201,-4.02926 8.98865,-5.03061 0.914787,-0.27472 2.384393,-0.7366 3.308474,-0.93074 2.113804,-0.44402 4.260981,-0.36603 6.388118,-0.6163 3.017709,-0.16945 6.039946,0.0748 8.966739,1.15148 2.721383,1.17993 5.275866,2.85961 7.791556,4.66721 0,0 -5.531343,-5.95533 -5.531343,-5.95533 z" />
  </g>
</svg>
